HIERARCHY
ROOT Hips
{
    OFFSET 0.000000 0.000000 0.000000
    CHANNELS 6 Xposition Yposition Zposition Zrotation Xrotation Yrotation
    JOINT Spine
    {
        OFFSET -0.000000 0.081317 0.000000
        CHANNELS 3 Zrotation Xrotation Yrotation
        JOINT Spine1
        {
            OFFSET -0.000000 0.225200 0.000000
            CHANNELS 3 Zrotation Xrotation Yrotation
            JOINT Neck
            {
                OFFSET -0.000000 0.224275 0.020389
                CHANNELS 3 Zrotation Xrotation Yrotation
                JOINT Head
                {
                    OFFSET -0.000000 0.138833 -0.019833
                    CHANNELS 3 Zrotation Xrotation Yrotation
                    End Site
                    {
                        OFFSET -0.000000 0.198333 0.000000
                    }
                }
            }
            JOINT LeftShoulder
            {
                OFFSET 0.039732 0.208237 -0.000812
                CHANNELS 3 Zrotation Xrotation Yrotation
                JOINT LeftArm
                {
                    OFFSET 0.110955 0.000000 0.000000
                    CHANNELS 3 Zrotation Xrotation Yrotation
                    JOINT LeftForeArm
                    {
                        OFFSET 0.324523 0.000000 0.000000
                        CHANNELS 3 Zrotation Xrotation Yrotation
                        JOINT LeftHand
                        {
                            OFFSET 0.302601 0.000000 0.000000
                            CHANNELS 3 Zrotation Xrotation Yrotation
                            End Site
                            {
                                OFFSET 0.148750 0.000000 0.000000
                            }
                        }
                    }
                }
            }
            JOINT RightShoulder
            {
                OFFSET -0.039598 0.208237 -0.000812
                CHANNELS 3 Zrotation Xrotation Yrotation
                JOINT RightArm
                {
                    OFFSET -0.110955 0.000000 0.000000
                    CHANNELS 3 Zrotation Xrotation Yrotation
                    JOINT RightForeArm
                    {
                        OFFSET -0.324523 0.000000 0.000000
                        CHANNELS 3 Zrotation Xrotation Yrotation
                        JOINT RightHand
                        {
                            OFFSET -0.302601 0.000000 0.000000
                            CHANNELS 3 Zrotation Xrotation Yrotation
                            End Site
                            {
                                OFFSET -0.148750 0.000000 0.000000
                            }
                        }
                    }
                }
            }
        }
    }
    JOINT LeftUpLeg
    {
        OFFSET 0.099167 0.000000 0.000000
        CHANNELS 3 Zrotation Xrotation Yrotation
        JOINT LeftLeg
        {
            OFFSET -0.000000 -0.380753 0.000000
            CHANNELS 3 Zrotation Xrotation Yrotation
            JOINT LeftFoot
            {
                OFFSET -0.000000 -0.440093 0.000000
                CHANNELS 3 Zrotation Xrotation Yrotation
                JOINT LeftToeBase
                {
                    OFFSET -0.000000 -0.064458 0.148750
                    CHANNELS 3 Zrotation Xrotation Yrotation
                    End Site
                    {
                        OFFSET -0.000000 0.000000 0.039667
                    }
                }
            }
        }
    }
    JOINT RightUpLeg
    {
        OFFSET -0.099167 0.000000 0.000000
        CHANNELS 3 Zrotation Xrotation Yrotation
        JOINT RightLeg
        {
            OFFSET -0.000000 -0.380753 0.000000
            CHANNELS 3 Zrotation Xrotation Yrotation
            JOINT RightFoot
            {
                OFFSET -0.000000 -0.440093 0.000000
                CHANNELS 3 Zrotation Xrotation Yrotation
                JOINT RightToeBase
                {
                    OFFSET -0.000000 -0.064458 0.148750
                    CHANNELS 3 Zrotation Xrotation Yrotation
                    End Site
                    {
                        OFFSET -0.000000 0.000000 0.039667
                    }
                }
            }
        }
    }
}
MOTION
Frames:    12
Frame Time:    0.010000
-0.493218    0.946203    -0.205814    -11.663317    2.622769    14.865574    -0.111633    -21.861986    3.005854    0.118472    40.416821    0.953453    -5.002034    22.795700    -2.244521    4.811630    -32.312748    -0.648028    -16.873291    3.026249    -12.435673    -49.157162    0.581660    -20.832596    5.224036    25.501276    -49.956924    10.889750    26.541607    -13.346216    9.820354    2.444759    9.163125    65.738930    56.139091    -5.443312    -31.294165    -23.190830    42.992672    13.988211    -12.049986    -7.981579    9.905024    -1.352709    47.665661    1.098209    4.948642    28.276417    19.593040    18.151016    -64.118759    0.000000    0.000000    0.000000    2.400023    -7.174627    1.467531    2.139609    12.485068    -6.080894    5.762780    30.354097    -19.901447    0.000000    0.000000    0.000000    
-0.492938    0.946276    -0.205635    -11.669105    2.681943    14.868634    -0.224214    -21.778301    2.929770    0.360133    40.370201    0.846277    -5.088641    22.809978    -2.196890    4.911153    -32.260998    -0.565460    -16.842110    3.045392    -12.440937    -49.189041    0.526510    -20.797054    5.242758    25.616871    -51.044140    10.579284    26.763323    -13.200870    9.756681    2.469748    9.045192    65.837906    55.941727    -5.664487    -31.190912    -23.032763    42.515079    14.123488    -12.107105    -8.148044    9.868109    -1.299986    47.693180    1.007383    4.796406    28.473703    19.722288    18.143747    -64.404266    0.000000    0.000000    0.000000    2.460244    -7.529241    1.721705    1.980397    12.811184    -5.786224    5.998796    30.686529    -20.150505    0.000000    0.000000    0.000000    
-0.492695    0.946328    -0.205440    -11.679218    2.746917    14.865082    -0.294931    -21.753258    2.836140    0.499572    40.418282    0.767909    -5.163512    22.819012    -2.114733    5.015056    -32.227146    -0.443536    -16.772661    3.042175    -12.438790    -49.154896    0.626244    -20.808725    5.145729    25.538464    -52.027290    10.647408    26.681141    -13.255916    9.733771    2.464316    9.015065    65.890022    55.619896    -5.857149    -31.000063    -22.746471    42.092827    14.137536    -12.038433    -8.327476    9.839367    -1.244798    47.721359    0.896192    4.645069    28.744289    19.901823    18.084333    -64.744858    0.000000    0.000000    0.000000    2.460796    -8.081810    1.979108    2.283645    13.771167    -6.326118    5.103430    30.193584    -19.831896    0.000000    0.000000    0.000000    
-0.492474    0.946375    -0.205196    -11.674439    2.802398    14.860076    -0.379969    -21.710003    2.734240    0.641611    40.464218    0.686593    -5.235024    22.877901    -2.031519    5.127122    -32.267704    -0.316251    -16.691748    3.010151    -12.461655    -49.171032    0.706312    -20.739714    5.242684    25.525850    -53.180946    10.288659    26.813532    -13.179061    9.734652    2.392134    9.025083    66.090431    55.356686    -6.258549    -30.792603    -22.571095    41.701252    14.202595    -12.073743    -8.401924    9.799791    -1.163170    47.724701    0.775378    4.479154    28.985750    20.024246    18.084578    -65.025124    0.000000    0.000000    0.000000    2.480283    -8.418021    2.328158    2.217387    14.096194    -5.852791    5.448922    30.410526    -20.313978    0.000000    0.000000    0.000000    
-0.492312    0.946411    -0.204937    -11.674829    2.854891    14.855664    -0.475409    -21.649984    2.608045    0.817918    40.490978    0.585109    -5.398811    22.921640    -1.951027    5.371438    -32.254063    -0.144417    -16.620293    3.001249    -12.479487    -49.200695    0.684382    -20.718901    5.286147    25.635374    -54.305672    9.839009    27.053207    -13.088445    9.698404    2.435703    9.006451    66.123322    55.050514    -6.456744    -30.590069    -22.285959    41.332367    14.110702    -11.971568    -8.485117    9.776739    -1.079377    47.727901    0.643824    4.323482    29.210712    20.170008    18.055058    -65.292831    0.000000    0.000000    0.000000    2.480771    -8.982868    2.686350    2.584951    15.099427    -6.454788    4.559976    29.855619    -20.029757    0.000000    0.000000    0.000000    
-0.492191    0.946447    -0.204624    -11.679724    2.910429    14.848139    -0.566715    -21.606157    2.510165    1.010527    40.533546    0.486574    -5.502051    22.969749    -1.893886    5.537895    -32.212025    -0.027099    -16.567682    3.005311    -12.480178    -49.112804    0.912168    -20.736755    5.419874    25.587019    -55.534355    9.277061    27.202562    -12.919747    9.688073    2.484947    8.958117    66.129471    54.720612    -6.666957    -30.316002    -22.061337    41.038654    14.111117    -11.952071    -8.634775    9.761289    -1.004743    47.804050    0.554335    4.150307    29.444618    20.325184    18.186998    -65.704575    0.000000    0.000000    0.000000    2.486499    -9.391522    3.010174    2.907277    15.565593    -6.880685    3.822142    29.869310    -19.826841    0.000000    0.000000    0.000000    
-0.493815    0.940032    -0.221028    -16.820427    8.017398    18.309504    4.336863    -25.423248    0.520273    -1.330234    38.132057    0.305548    -5.685306    22.956388    -1.803133    5.760978    -32.094860    0.142995    -16.545973    2.979531    -12.468746    -48.894165    1.274105    -20.724737    5.489451    25.435820    -56.782307    8.828029    27.202728    -12.883039    9.703747    2.534547    8.953721    66.124840    54.288147    -6.876030    -30.010628    -21.780348    40.786903    14.124572    -11.857787    -8.667089    12.875065    -10.353129    43.898968    2.431691    6.124762    31.380882    15.768847    14.924205    -65.822197    0.000000    0.000000    0.000000    4.849697    -17.761349    0.064172    3.267096    17.657242    -6.376000    3.537402    29.404549    -19.352392    0.000000    0.000000    0.000000    
-0.491916    0.946451    -0.203819    -11.642333    2.973936    14.860283    -0.746167    -21.464069    2.267217    1.326400    40.648651    0.297942    -5.756371    22.928118    -1.733322    5.896423    -31.925928    0.260197    -16.442144    2.933004    -12.566691    -48.824348    1.558792    -20.602896    6.197537    25.420599    -58.459557    6.814995    27.872465    -12.195703    9.670866    2.638552    8.896722    66.120354    53.991428    -7.106304    -29.786331    -21.518366    40.562992    14.185502    -11.753027    -8.759830    9.680958    -0.814420    47.893105    0.368027    3.859220    29.938723    20.607206    18.129087    -66.401855    0.000000    0.000000    0.000000    2.592469    -10.280905    3.535375    2.972180    17.041059    -6.430628    3.502225    29.037788    -19.251703    0.000000    0.000000    0.000000    
-0.493699    0.940140    -0.220198    -16.802828    8.108478    18.374552    4.117360    -25.309309    0.227054    -1.003864    38.253124    0.114381    -5.810271    22.886152    -1.665723    6.041583    -31.790279    0.382291    -16.382589    2.857912    -12.557430    -48.643444    1.900342    -20.601349    6.309146    25.350847    -59.828732    6.133197    28.017691    -12.085819    9.719837    2.671101    8.851974    66.179291    53.653393    -7.424405    -29.536285    -21.266771    40.378265    14.232119    -11.654821    -8.844444    12.814064    -10.217611    43.948944    2.266496    5.842367    31.676586    15.971783    14.990209    -66.299194    0.000000    0.000000    0.000000    4.962242    -18.664743    0.535761    3.311380    18.964178    -5.916148    3.098830    28.838314    -18.270596    0.000000    0.000000    0.000000    
-0.492012    0.946562    -0.202912    -11.696277    3.132037    14.951551    -0.925518    -21.443481    1.974480    1.642955    40.794193    0.091909    -5.759878    22.873005    -1.583582    6.036574    -31.649265    0.462291    -16.213366    2.833434    -12.608706    -48.534920    2.580094    -20.621365    6.515819    24.862543    -61.113136    5.932675    27.737072    -12.409219    9.716914    2.768293    8.787847    66.217636    53.391350    -7.740254    -29.285524    -21.108814    40.241589    14.290206    -11.626688    -8.810492    9.703993    -0.808103    47.986366    0.230245    3.652259    30.248360    20.837494    18.111746    -66.943016    0.000000    0.000000    0.000000    2.940611    -11.302950    3.733869    2.732442    18.419439    -5.500565    3.087010    28.346277    -17.817965    0.000000    0.000000    0.000000    
-0.492067    0.946587    -0.202390    -11.716334    3.205134    15.015730    -1.017035    -21.406385    1.813799    1.815687    40.834503    -0.021055    -5.815645    22.896591    -1.536230    6.228129    -31.525784    0.578769    -16.156481    2.828440    -12.633944    -48.305336    2.976458    -20.663061    6.465899    24.724007    -62.561356    5.488386    27.730461    -12.098552    9.718324    2.867583    8.727117    66.266502    53.054878    -8.054213    -29.018167    -20.893248    40.134392    14.446344    -11.549027    -8.827525    9.718101    -0.808275    48.003365    0.162289    3.574537    30.318792    20.900372    18.117800    -67.105675    0.000000    0.000000    0.000000    3.139818    -11.745809    4.101663    2.714581    18.901308    -5.354200    2.215664    28.411772    -16.364244    0.000000    0.000000    0.000000    
-0.493060    0.940692    -0.217325    -16.420494    7.818738    18.359207    3.594725    -24.848013    -0.192232    -0.503913    38.688141    -0.152669    -5.873861    22.868546    -1.459312    6.333320    -31.381996    0.691942    -16.148666    2.759851    -12.655003    -48.017540    3.441534    -20.674826    6.472691    24.519608    -64.059067    5.144733    27.676191    -11.969182    9.738009    2.895828    8.683535    66.337952    52.644978    -8.399488    -28.625729    -20.886784    40.136009    14.685945    -11.684834    -8.619677    12.468056    -9.340627    44.096073    1.900953    5.293555    31.777954    16.590893    15.249436    -66.580101    0.000000    0.000000    0.000000    5.231393    -19.367741    1.282352    3.016075    20.608147    -4.408435    1.948709    28.235582    -15.332011    0.000000    0.000000    0.000000    
